<?xml version="1.0" ?><!DOCTYPE svg  PUBLIC '-//W3C//DTD SVG 1.1//EN'  'http://www.w3.org/Graphics/SVG/1.1/DTD/svg11.dtd'><svg enable-background="new 0 0 1024 1024" height="1024px" id="Layer_1" version="1.1" viewBox="0 0 1024 1024" width="1024px" xml:space="preserve" xmlns="http://www.w3.org/2000/svg" xmlns:xlink="http://www.w3.org/1999/xlink"><g id="Background"><path d="M983.766,312.727c-25.785-60.972-62.694-115.728-109.705-162.744   C827.05,102.966,772.299,66.049,711.329,40.257C648.194,13.548,581.14,0.004,512,0c-69.104,0-136.155,13.54-199.289,40.243   c-60.969,25.787-115.721,62.699-162.735,109.71c-47.014,47.011-83.929,101.761-109.72,162.728   C13.548,375.814,0.004,442.865,0,511.97c-0.004,69.109,13.533,136.165,40.234,199.304   c25.785,60.973,62.696,115.728,109.707,162.743c47.011,47.018,101.762,83.935,162.732,109.727   c63.136,26.708,130.19,40.253,199.323,40.257h0.009c69.104,0,136.153-13.54,199.288-40.243   c60.969-25.787,115.72-62.699,162.733-109.709c47.013-47.01,83.929-101.76,109.72-162.728   c26.708-63.134,40.251-130.186,40.255-199.29C1024.004,442.921,1010.467,375.866,983.766,312.727z M512.004,976.328h-0.03   c-124.026-0.007-240.627-48.313-328.323-136.019C95.957,752.604,47.665,635.999,47.672,511.973   c0.015-256.016,208.312-464.3,464.356-464.3c124.026,0.007,240.626,48.312,328.32,136.017   c87.695,87.706,135.986,204.311,135.979,328.337C976.313,768.043,768.018,976.328,512.004,976.328z" fill="#262626"/></g><g id="Snapchat"><path d="M804,658.983c-7-19-45.5-5-87.5-53s-42-69.5-41.5-73.5s-4.5-10,26.5-21s39-18.5,42.5-24s7-20-12-29   s-58.5,23.5-59.5,3s0.267-115.5-14.117-142.5c-14.383-27-55.882-86-146.383-86s-132,59-146.383,86   c-14.384,27-13.117,122-14.117,142.5s-40.5-12-59.5-3s-15.5,23.5-12,29s11.5,13,42.5,24s26,17,26.5,21s0.5,25.5-41.5,73.5   s-80.5,34-87.5,53s36,33.5,47.334,36.167c11.333,2.667,37.166,0.333,34.916,25.333s14.75,20.5,14.75,20.5   c66.5-20,95.5,5.5,131.5,29.5s63.5,20.333,63.5,20.333s27.5,3.667,63.5-20.333s65-49.5,131.5-29.5c0,0,17,4.5,14.75-20.5   s23.583-22.667,34.916-25.333C768,692.483,811,677.983,804,658.983z" fill="#262626"/></g></svg>