<?xml version="1.0" ?><!DOCTYPE svg  PUBLIC '-//W3C//DTD SVG 1.1//EN'  'http://www.w3.org/Graphics/SVG/1.1/DTD/svg11.dtd'><svg enable-background="new 0 0 1024 1024" height="1024px" id="Layer_1" version="1.1" viewBox="0 0 1024 1024" width="1024px" xml:space="preserve" xmlns="http://www.w3.org/2000/svg" xmlns:xlink="http://www.w3.org/1999/xlink"><g id="Background"><path d="M983.766,312.727c-25.785-60.972-62.694-115.728-109.705-162.744   C827.05,102.966,772.299,66.049,711.329,40.257C648.194,13.548,581.14,0.004,512,0c-69.104,0-136.155,13.54-199.289,40.243   c-60.969,25.787-115.721,62.699-162.735,109.71c-47.014,47.011-83.929,101.761-109.72,162.728   C13.548,375.814,0.004,442.865,0,511.97c-0.004,69.109,13.533,136.165,40.234,199.304   c25.785,60.973,62.696,115.728,109.707,162.743c47.011,47.018,101.762,83.935,162.732,109.727   c63.136,26.708,130.19,40.253,199.323,40.257h0.009c69.104,0,136.153-13.54,199.288-40.243   c60.969-25.787,115.72-62.699,162.733-109.709c47.013-47.01,83.929-101.76,109.72-162.728   c26.708-63.134,40.251-130.186,40.255-199.29C1024.004,442.921,1010.467,375.866,983.766,312.727z M512.004,976.328h-0.03   c-124.026-0.007-240.627-48.313-328.323-136.019C95.957,752.604,47.665,635.999,47.672,511.973   c0.015-256.016,208.312-464.3,464.356-464.3c124.026,0.007,240.626,48.312,328.32,136.017   c87.695,87.706,135.986,204.311,135.979,328.337C976.313,768.043,768.018,976.328,512.004,976.328z" fill="#262626"/></g><g id="Twitter"><path d="M742.988,348.513c0,0,52.681-44.338,51.012-64.124c0,0-60.785,26.698-74.135,27.89   c0,0-4.227-4.253-11.146-9.845c-2.307-1.864-4.912-3.877-7.762-5.93c-5.277-3.853-10.833-7.164-16.602-9.969   c-2.884-1.402-5.82-2.679-8.797-3.84c-19.379-8.492-40.61-10.572-61.45-8.292c-2.978,0.326-5.946,0.741-8.901,1.238   c-34.565,5.411-64.125,26.388-82.727,54.989c-1.67,2.609-3.218,5.287-4.629,8.033c-2.818,5.492-5.089,11.256-6.686,17.269   c-0.627,2.22-1.313,4.805-1.96,7.565c-0.648,2.76-1.259,5.695-1.736,8.615c-1.907,11.681,0,49.583,0,49.583   s-153.753,4.768-252.442-123.003c0,0-48.628,92.014,35.28,156.376c0,0-17.064,7.628-49.295-11.442c0,0-16.02,70.082,87.912,118.234   H278.39c0,0,17.64,77.711,111.562,84.862c0,0-44.338,59.594-173.063,50.535c0,0,116.14,80.755,265.766,43.276   c2.671-0.67,5.354-1.377,8.047-2.122c23.682-7.305,47.52-15.886,69.171-27.394c1.889-0.979,3.779-1.982,5.671-3.008   c5.677-3.072,11.377-6.343,17.099-9.816c0,0,157.32-85.241,170.191-305.489c0,0,33.063-19.401,54.277-56.587   C807.111,336.118,747.517,349.943,742.988,348.513z" fill="#262626" id="Twitter_1_"/></g></svg>